<svg id="fb496834-9596-4d79-aca6-a3499a0b4e72" data-name="Calque 1" xmlns="http://www.w3.org/2000/svg" viewBox="0 0 946 442">
  <g>
    <path d="M232.9,140.91,163.69,81.54a8.6,8.6,0,0,0-11.38,0L83.1,140.91a10.45,10.45,0,0,0-3.53,7.93v89.24c0,5.57,4.13,10.08,9.23,10.08h15v54c0,33.33,26.21,60.44,58.42,60.44s58.41-27.11,58.41-60.44a14,14,0,0,0-28,0c0,17.92-13.66,32.5-30.46,32.5s-30.47-14.58-30.47-32.5v-54h95.5c5.09,0,9.22-4.51,9.22-10.08V148.84A10.45,10.45,0,0,0,232.9,140.91Zm-37,46c0,26-14.53,40.92-39.87,40.92-25,0-39.39-14.7-39.39-40.33V148.82a12.8,12.8,0,1,1,25.59,0v38.25c0,11,4.72,16.63,14,16.63s14-5.4,14-16V148.82a12.8,12.8,0,1,1,25.59,0Z" style="fill: #2b9dfe"/>
    <g>
      <path d="M288.48,224.39V155.62a16.1,16.1,0,0,1,32.2,0v67.93c0,23.83,11.91,36.17,31.56,36.17S383.8,247.8,383.8,224.6v-69a16.1,16.1,0,1,1,32.19,0v67.73c0,44.31-24.87,66-64.17,66S288.48,267.45,288.48,224.39Z" style="fill: #2b9dfe"/>
      <path d="M445.46,189.69a15.89,15.89,0,1,1,31.77,0v1.25c7.32-9.4,16.73-18,32.82-18,24,0,38.05,15.88,38.05,41.6v57.9a15.89,15.89,0,0,1-31.78,0V224.6c0-15-7.1-22.79-19.23-22.79s-19.86,7.74-19.86,22.79v47.87a15.89,15.89,0,0,1-31.77,0Z" style="fill: #2b9dfe"/>
      <path d="M575.68,149.14a15.89,15.89,0,1,1,31.77,0v69.4l39.72-37.63c4.6-4.39,8.36-7.11,14-7.11,8.57,0,14,6.9,14,14.22,0,5.43-2.93,9.61-7.32,13.79l-25.08,21.54,29.89,40.34c2.72,3.76,4,6.69,4,10.24,0,8.57-6.9,14.42-14.84,14.42-6.27,0-10-2.09-13.79-7.31L620.2,242.78l-12.75,11.5v18.19a15.89,15.89,0,0,1-31.77,0Z" style="fill: #2b9dfe"/>
      <path d="M700.05,149.14a15.89,15.89,0,1,1,31.77,0V272.47a15.89,15.89,0,0,1-31.77,0Z" style="fill: #2b9dfe"/>
      <path d="M814.8,289.61c-33.65,0-58.52-23.62-58.52-57.9v-.42c0-32,22.78-58.32,55.39-58.32,37.42,0,53.93,30.73,53.93,53.93,0,9.2-6.48,15.26-14.84,15.26H787.84c3.13,14.42,13.17,22,27.38,22a36.67,36.67,0,0,0,22.58-7.53,11.87,11.87,0,0,1,7.73-2.51,12.14,12.14,0,0,1,12.33,12.54,12.48,12.48,0,0,1-4.18,9.41C843.86,284.38,831.11,289.61,814.8,289.61Zm20.49-67.31c-1.88-14.21-10.24-23.83-23.62-23.83-13.17,0-21.74,9.41-24.25,23.83Z" style="fill: #2b9dfe"/>
    </g>
  </g>
</svg>
